HIERARCHY
ROOT Hips
{
	OFFSET	0	0	0
	CHANNELS 6  Xposition Yposition Zposition Xrotation Yrotation Zrotation
	JOINT Spine
	{
		OFFSET	0	7.09727	1.42491
		CHANNELS 3  Xrotation Yrotation Zrotation
		JOINT Spine1
		{
			OFFSET	0	12.1515	-2.16991
			CHANNELS 3  Xrotation Yrotation Zrotation
			JOINT Spine2
			{
				OFFSET	0	9.21125	0.987307
				CHANNELS 3  Xrotation Yrotation Zrotation
				JOINT Spine3
				{
					OFFSET	0	11.0231	3.27656
					CHANNELS 3  Xrotation Yrotation Zrotation
					JOINT Spine4
					{
						OFFSET	0	16.3177	-1.67083
						CHANNELS 3  Xrotation Yrotation Zrotation
						JOINT Neck
						{
							OFFSET	0	7.78996	-5.45731
							CHANNELS 3  Xrotation Yrotation Zrotation
							JOINT Head
							{
								OFFSET	0	9.35229	-2.79918
								CHANNELS 3  Xrotation Yrotation Zrotation
								End Site
								{
									OFFSET	0	19.5075	-0.943909
								}
							}
						}
					}
					JOINT LeftShoulder
					{
						OFFSET	-4.687	19.8329	-9.3523
						CHANNELS 3  Xrotation Yrotation Zrotation
						JOINT LeftArm
						{
							OFFSET	-10.2164	-2.79918	3.59122
							CHANNELS 3  Xrotation Yrotation Zrotation
							JOINT LeftForeArm
							{
								OFFSET	-30.9138	-1.41096	2.20659
								CHANNELS 3  Xrotation Yrotation Zrotation
								JOINT LeftHand
								{
									OFFSET	-25.9068	-1.7903	1.8492
									CHANNELS 3  Xrotation Yrotation Zrotation
									End Site
									{
										OFFSET	-9.45469	-0.653372	0.674821
									}
								}
							}
						}
					}
					JOINT RightShoulder
					{
						OFFSET	4.687	19.8329	-9.3523
						CHANNELS 3  Xrotation Yrotation Zrotation
						JOINT RightArm
						{
							OFFSET	10.2164	-2.79918	3.59122
							CHANNELS 3  Xrotation Yrotation Zrotation
							JOINT RightForeArm
							{
								OFFSET	30.9138	-1.41096	2.20659
								CHANNELS 3  Xrotation Yrotation Zrotation
								JOINT RightHand
								{
									OFFSET	25.9068	-1.7903	1.8492
									CHANNELS 3  Xrotation Yrotation Zrotation
									End Site
									{
										OFFSET	9.45469	-0.653372	0.674821
									}
								}
							}
						}
					}
				}
			}
		}
	}
	JOINT LeftUpLeg
	{
		OFFSET	-9.67573	-3.54864	-0.712453
		CHANNELS 3  Xrotation Yrotation Zrotation
		JOINT LeftLeg
		{
			OFFSET	-2.14499	-42.0303	-0.657025
			CHANNELS 3  Xrotation Yrotation Zrotation
			JOINT LeftFoot
			{
				OFFSET	-2.09953	-38.701	3.32829
				CHANNELS 3  Xrotation Yrotation Zrotation
				JOINT LeftToeBase
				{
					OFFSET	0	-4.7778	-12.6898
					CHANNELS 3  Xrotation Yrotation Zrotation
					End Site
					{
						OFFSET	0	-1.91111	-7.64447
					}
				}
			}
		}
	}
	JOINT RightUpLeg
	{
		OFFSET	9.67573	-3.54864	-0.712453
		CHANNELS 3  Xrotation Yrotation Zrotation
		JOINT RightLeg
		{
			OFFSET	2.14499	-42.0303	-0.657025
			CHANNELS 3  Xrotation Yrotation Zrotation
			JOINT RightFoot
			{
				OFFSET	2.09953	-38.701	3.32829
				CHANNELS 3  Xrotation Yrotation Zrotation
				JOINT RightToeBase
				{
					OFFSET	0	-4.7778	-12.6898
					CHANNELS 3  Xrotation Yrotation Zrotation
					End Site
					{
						OFFSET	0	-1.91111	-7.64447
					}
				}
			}
		}
	}
}
MOTION
Frames: 17
Frame Time: 0.020408
 0 -10.1591 2.86036 -0 0 -0 -0 0 -0 -0 0 -0 -0 0 -0 -0 0 -0 -0 0 -0 -0 0 -0 -0 0 -0 -0 0 -0 -0 0 -0 -0 0 -0 -0 0 -0 -0 0 -0 -0 0 -0 -0 0 -0 -0 0 -0 -0 0 -0 -0 0 -0 -0 0 -0 -0 0 -0 -0 0 -0 -0 0 -0 -0 0 -0 -0 0 -0
 -100.047 12.4008 194.367 47.0722 178.941 68.7542 179.853 178.058 -175.678 6.26358 3.86498 7.21535 3.81446 11.5938 7.34961 179.995 178.058 -175.678 12.4192 0.309703 1.40607 31.5719 12.8962 -16.1377 11.4237 40.0705 -6.45692 171.995 -178.77 164.097 87.2502 22.4017 -18.1996 97.6152 -57.8048 97.3861 -0 4.25476 -8.59176 1.64546 -10.5363 -2.82056 69.5822 10.9722 -78.891 39.637 122.84 -33.686 -0 1.11762 -31.9811 98.3921 -50.1596 98.979 156.07 -158.367 173.053 122.091 161.599 154.293 153.361 180 -180 58.7043 -16.065 40.5238 151.614 -139.796 179.13 130.972 164.771 125.237 177.491 180 -180
 -99.8504 12.7773 193.623 40.1503 176.955 67.7826 179.82 177.653 -175.624 6.17463 4.669 7.31194 3.44317 14.0049 7.51207 179.83 177.653 -175.624 12.768 0.322181 1.42146 32.3186 11.9893 -16.2055 11.6646 39.2223 -6.61913 172.01 179.648 164.347 89.3602 22.6652 -19.8244 98.4545 -57.8036 96.2522 -0 4.3973 -8.9254 1.89914 -9.33294 -3.30889 70.8089 11.2907 -80.7215 39.351 122.172 -34.2991 -0 0.982384 -31.8021 98.8811 -48.7358 96.0196 155.009 -159.96 172.014 117.865 176.198 165.733 151.428 180 -180 61.8674 -19.8698 41.4651 151.87 -144.198 168.866 124.636 174.717 139.912 177.828 180 -180
 -100.106 12.4258 194.232 49.2152 179.064 68.5499 179.865 178.271 -175.53 6.31606 3.44023 7.45964 3.94924 10.3198 7.56927 0.0156958 1.72949 4.46971 12.4246 0.320481 1.45434 31.7478 13.4246 -16.1051 11.4984 40.5007 -6.44034 171.807 -179.104 163.756 87.3867 22.2027 -18.3515 97.1177 -57.8488 96.9848 -0 4.28289 -8.50237 1.74587 -10.7894 -2.98263 69.6091 10.7492 -78.7837 38.0188 122.507 -32.4764 -0 1.06002 -31.845 99.6933 -49.769 99.5993 156.123 -157.855 174.304 123.074 160.423 152.511 153.273 180 -180 60.8412 -17.4279 42.2425 151.877 -139.59 -179.016 131.193 163.227 125.062 177.393 180 -180
 -100.093 12.4866 194.228 48.7498 178.74 68.524 179.854 178.13 -175.524 6.31471 3.71951 7.47168 3.87671 11.1575 7.60033 0.0492789 1.86992 4.4759 12.388 0.319971 1.45644 31.8626 14.4133 -15.2923 11.3666 40.0607 -5.96583 171.755 -178.362 163.546 87.1519 22.1258 -17.9446 97.2775 -57.819 96.8914 -0 4.30467 -8.43116 1.64875 -11.5874 -2.78529 69.6267 10.6129 -78.4846 37.3668 122.407 -31.7153 -0 0.98399 -31.8776 99.1402 -49.7106 98.8668 156.081 -158.054 174.156 123.055 160.663 152.38 153.072 180 -180 61.6977 -17.7122 41.8302 152.602 -140.19 -177.841 130.92 163.116 125.036 177.336 180 -180
 -99.9837 12.0689 193.537 44.3612 177.933 67.6888 179.848 178.014 -175.627 6.256 3.9519 7.30177 3.74594 11.8544 7.44395 179.92 178.014 -175.627 12.5998 0.317866 1.42177 32.6207 14.5596 -15.5864 11.7066 40.5527 -6.20411 171.993 179.325 164.358 88.1312 22.8103 -19.895 96.6391 -57.9126 96.0012 -0 4.35556 -8.52989 1.90213 -9.28163 -3.31633 71.1823 11.086 -80.047 37.8431 121.524 -33.1137 -0 0.886302 -31.707 97.4921 -48.4301 96.2252 155.922 -158.805 173.533 119.833 166.451 157.943 151.743 180 -180 63.1455 -18.6248 42.8962 151.585 -142.056 175.722 126.504 167.721 133.597 177.458 180 -180
 -100.164 12.3893 194.374 48.4039 178.767 68.6476 179.862 178.229 -175.536 6.31715 3.52323 7.45062 3.91743 10.5688 7.56553 179.986 178.229 -175.536 12.508 0.32218 1.45198 32.4358 14.9095 -15.4984 11.6357 40.7776 -6.12271 171.731 -179.576 163.665 87.4568 22.0553 -18.9125 96.5922 -57.9093 96.3738 -0 4.18147 -8.43705 1.8109 -11.4666 -3.06495 70.0324 11.0325 -79.3663 36.6365 121.849 -31.2558 -0 0.966521 -31.7811 99.634 -49.506 99.4531 155.416 -158.548 174.153 123.514 160.417 152.546 152.687 180 -180 60.1358 -15.7579 41.1086 150.985 -138.919 -179.359 131.462 163.605 124.408 177.252 180 -180
 -100.152 12.3596 194.411 49.3351 178.805 68.238 179.848 178.121 -175.389 6.30216 3.73697 7.69662 3.83544 11.2097 7.83046 0.0664846 1.87932 4.61058 12.3443 0.328458 1.50051 31.9539 15.23 -14.8691 11.325 40.1226 -5.71375 171.732 -178.066 163.458 86.5728 21.854 -17.6012 97.6507 -57.7981 96.8827 -0 4.2103 -8.48705 1.71059 -12.2533 -2.86254 69.3092 10.4091 -78.0242 35.6484 122.236 -30.1283 -0 0.882842 -31.6867 96.8505 -49.5395 97.2989 155.892 -157.41 173.505 123.649 161.177 151.191 152.461 180 -180 61.8157 -16.8657 42.7668 150.968 -139.642 -179.033 131.341 163.215 125.101 177.226 180 -180
 -99.9681 12.4162 194.553 49.0947 179.071 68.6798 179.86 178.238 -175.459 6.16848 3.50387 7.57932 3.74076 10.5107 7.69495 179.838 178.238 -175.459 12.5794 0.329595 1.47669 32.8829 15.1919 -15.4019 11.7728 40.7864 -6.10362 171.791 -179.301 163.75 87.713 21.8806 -18.6515 97.2466 -57.8048 97.1754 -0 4.11176 -8.42502 1.93604 -11.5125 -3.2751 69.5506 10.5931 -78.2773 35.1807 122.147 -29.8006 -0 0.84089 -31.6562 99.395 -50.1446 99.7492 156.404 -158.145 173.885 123.342 160.626 152.175 152.277 180 -180 60.8736 -17.3362 42.0845 151.635 -139.261 -178.782 131.305 163.086 125.011 177.183 180 -180
 -99.8678 12.3458 194.307 46.1889 178.57 68.0284 179.84 177.993 -175.449 5.93057 3.99081 7.59807 3.34053 11.971 7.74907 179.633 177.993 -175.449 12.6864 0.332989 1.47889 33.5338 15.8367 -14.8499 11.87 40.294 -5.82818 171.911 -179.44 164.016 87.8548 22.2318 -18.9224 97.5538 -57.8324 96.5071 -0 4.11977 -8.44159 1.86197 -11.2554 -3.16091 70.8233 10.7369 -78.7148 35.2693 121.798 -29.9987 -0 0.681883 -31.5597 96.9419 -49.8688 97.5992 156.411 -158.527 172.134 121.847 163.735 154.923 151.447 180 -180 61.5437 -17.2753 41.2498 152.031 -140.564 -179.841 129.102 165.004 128.354 177.218 180 -180
 -99.8172 12.4754 194.608 50.734 178.742 68.5546 179.848 178.126 -175.369 6.3204 3.72639 7.73008 3.84788 11.178 7.86374 0.0660674 1.8741 4.63067 12.3806 0.330845 1.50684 32.1906 15.9244 -14.1528 11.2583 39.5283 -5.32247 171.772 -177.219 163.429 87.0402 21.8353 -17.236 97.8462 -57.6865 97.4397 -0 4.08279 -8.4488 1.63223 -14.0153 -2.66028 69.1278 10.1966 -77.6727 34.158 122.355 -28.6282 -0 0.676995 -31.6058 100.161 -50.293 100.293 156.73 -157.456 173.403 123.524 161.271 151.81 151.805 180 -180 61.8572 -17.8989 43.4878 151.281 -139.64 -179.321 131.669 163.458 124.63 177.115 180 -180
 -99.8537 12.1561 193.862 45.8179 177.917 67.6101 179.848 178.071 -175.484 6.22971 3.83572 7.53967 3.72048 11.5059 7.67788 179.911 178.071 -175.484 12.5745 0.327624 1.46844 32.823 15.4685 -15.0836 11.6803 40.5205 -5.90822 172.044 179.636 164.419 87.8289 22.5723 -19.5408 96.7445 -57.8748 95.6204 -0 4.15837 -8.36391 1.8319 -10.2605 -3.1525 71.2846 10.7391 -79.3836 35.3172 121.182 -30.6597 -0 0.515415 -31.543 99.4371 -48.7459 98.0745 156.491 -158.579 173.649 120.618 165.476 157.327 150.525 180 -180 64.5591 -18.9001 43.4568 151.308 -141.729 178.033 127.304 166.258 132.361 177.206 180 -180
 -99.8495 12.5264 194.583 49.4717 178.597 68.2293 179.847 178.137 -175.3 6.22721 3.70368 7.84583 3.71411 11.1099 7.97983 179.911 178.137 -175.3 12.5718 0.340912 1.52832 32.7779 15.402 -14.9459 11.6268 40.2308 -5.82934 171.657 -178.518 163.364 87.4655 21.897 -17.807 97.2499 -57.7993 96.4822 -0 4.0061 -8.41978 1.80889 -12.7622 -3.00493 69.6198 10.2434 -77.8914 33.9336 121.993 -28.4977 -0 0.597839 -31.4886 97.4079 -50.1745 97.9308 156.406 -157.099 172.724 123.777 161.456 151.724 151.366 180 -180 62.283 -17.7046 42.5054 151.975 -139.834 -178.007 131.238 163.106 125.203 177.037 180 -180
 -99.8456 12.4438 194.529 49.115 178.855 68.497 179.853 178.156 -175.439 6.02578 3.66769 7.61382 3.54327 11.002 7.74126 179.738 178.156 -175.439 12.5721 0.330847 1.48318 33.1832 16.0762 -14.5931 11.6986 40.172 -5.64438 171.859 -178.702 163.808 87.6318 22.0537 -18.2371 97.2349 -57.8438 96.5262 -0 3.92195 -8.39576 1.70299 -12.561 -2.83707 70.2516 10.3707 -78.1129 33.8771 121.922 -28.5777 -0 0.485558 -31.5031 98.3861 -49.8443 98.6453 155.884 -157.377 173.577 123.792 161.119 152.245 151.161 180 -180 60.3268 -16.7877 41.7769 151.386 -139.49 -179.294 131.437 164.035 124.377 177.008 180 -180
 -99.9138 12.4108 194.364 50.0587 178.698 68.774 179.864 178.267 -175.517 6.26097 3.44798 7.48243 3.88597 10.3431 7.5929 179.97 178.267 -175.517 12.4296 0.321588 1.45874 32.5198 15.9104 -14.7699 11.5177 40.486 -5.68908 171.855 -178.938 163.831 87.8 22.1825 -18.3706 97.0382 -57.8163 97.0783 -0 3.91953 -8.38082 1.60046 -12.3433 -2.67447 70.0965 10.3294 -78.088 33.7542 121.64 -28.7024 -0 0.56436 -31.4995 99.5881 -49.4605 98.9015 155.462 -157.133 174.995 124.353 160.421 151.517 150.935 180 -180 62.1782 -18.3843 43.1471 151.617 -139.301 -179.016 131.047 163.067 125.845 176.978 180 -180
 -100.172 12.5126 194.282 48.946 178.194 68.0166 179.845 178.117 -175.298 6.30588 3.74288 7.84964 3.78215 11.2274 7.9866 179.969 178.117 -175.298 12.5914 0.341585 1.52887 32.6168 14.8714 -15.3367 11.6522 40.4256 -6.05165 171.597 -178.851 163.286 87.54 22.0378 -18.2434 97.4884 -57.7941 96.897 -0 3.93643 -8.34346 1.79651 -12.8046 -2.98248 69.929 9.96945 -78.2521 33.3777 121.797 -28.4399 -0 0.522036 -31.447 96.7055 -48.96 96.2411 155.032 -157.317 173.638 124.868 161.314 151.042 150.67 180 -180 61.5132 -15.8576 41.4554 151.334 -140.363 -178.707 131.966 164.86 124.369 176.925 180 -180
 -99.9745 13.4489 193.347 42.3901 176.256 67.8268 179.821 177.753 -175.433 6.12564 4.4683 7.62942 3.37736 13.4029 7.82036 179.735 177.753 -175.433 12.8958 0.33958 1.48284 33.2088 13.6117 -15.1897 11.7623 38.8579 -6.07819 171.89 -179.824 164.027 89.8978 22.3914 -19.691 98.5499 -57.7966 95.9318 -0 3.97266 -8.76415 1.76601 -11.5945 -2.98345 71.0158 10.8676 -79.8596 33.6711 121.455 -29.1563 -0 0.355598 -31.3357 100.541 -48.5446 95.6741 154.573 -159.299 172.442 120.101 178.895 165.395 147.899 180 -180 62.8461 -18.1439 40.6437 151.087 -146.459 169.441 130.704 178.074 144.581 177.35 180 -180
